<?xml version="1.0" encoding="UTF-8" standalone="no"?>
<!DOCTYPE svg PUBLIC "-//W3C//DTD SVG 1.1//EN" "http://www.w3.org/Graphics/SVG/1.1/DTD/svg11.dtd">
<svg width="100%" height="100%" viewBox="0 0 231 279" version="1.1" xmlns="http://www.w3.org/2000/svg" xmlns:xlink="http://www.w3.org/1999/xlink" xml:space="preserve" style="fill-rule:evenodd;clip-rule:evenodd;stroke-linejoin:round;stroke-miterlimit:1.41421;">
    <g transform="matrix(1,0,0,1,-0,-226.293)">
        <g id="Artboard2" transform="matrix(1.07306,0,0,0.998168,732.237,-5.2587)">
            <g id="Body-orange" transform="matrix(0.478542,0.0473562,-0.044051,0.514448,-789.751,139.479)">
                <g transform="matrix(1.3608,-0.912741,1.11076,1.65603,-475.137,278.247)">
                    <ellipse cx="353.706" cy="326.65" rx="41.985" ry="12.558" style="fill:rgb(249,172,8);"/>
                </g>
                <g transform="matrix(-0.773643,0.374258,-0.43548,-0.900198,973.977,935.239)">
                    <path d="M462.558,653.483L348.263,653.483L364.05,522.575L446.771,522.575L462.558,653.483Z" style="fill:rgb(249,172,8);"/>
                </g>
                <g transform="matrix(-1.71477,0.269578,-0.155302,-0.987867,1395.97,1128.72)">
                    <path d="M520.914,665.65C522.076,662.244 522.667,658.707 522.667,655.15C522.667,635.056 504.181,618.742 481.413,618.742C458.644,618.742 440.158,635.056 440.158,655.15C440.158,658.707 440.749,662.244 441.911,665.65L520.914,665.65Z" style="fill:rgb(249,172,8);"/>
                </g>
                <g transform="matrix(0.995585,0.0938626,-0.119737,1.27003,11.911,-192.144)">
                    <path d="M602.215,585.781L495.172,585.781L521.933,287.234L564.109,287.234L602.215,585.781Z" style="fill:rgb(249,172,8);"/>
                </g>
                <g transform="matrix(-0.0801773,0.986402,-0.908593,-0.0738528,919.31,-539.972)">
                    <path d="M798.314,301.193C776.883,301.193 759.509,322.046 759.509,347.769C759.509,373.475 776.897,394.345 798.314,394.345C819.745,394.345 837.118,373.492 837.118,347.769L798.314,347.769L798.314,301.193Z" style="fill:rgb(249,172,8);"/>
                </g>
                <g transform="matrix(-0.155081,0.64542,-0.72076,-0.173183,948.993,-190.597)">
                    <path d="M727.337,270.88L746.755,404.583L707.919,404.583L727.337,270.88Z" style="fill:rgb(249,172,8);"/>
                </g>
            </g>
            <g id="shadow-orange" transform="matrix(0.931911,0,0,1.00183,-1248.3,-162.749)">
                <g transform="matrix(0.600887,0.0676039,-0.0562025,0.499548,344.348,276.99)">
                    <path d="M718.177,627.322L683.716,627.322L692.331,236.79L709.562,236.79L718.177,627.322Z" style="fill:rgb(233,140,18);"/>
                </g>
                <g transform="matrix(0.513506,0.0472695,-0.0472695,0.513506,492.05,301.675)">
                    <path d="M440.743,602.169C446.01,608.296 459.519,614.653 473.374,610.359C490.672,607.785 500.515,588.811 508.889,583.523L539.74,607.042C531.007,623.61 518.04,634.628 501.335,640.745C483.815,647.11 466.265,649.587 448.685,648.175C429.489,647.626 414.435,641.179 402.439,632.16L344.372,537.648L402.993,534.148L440.743,602.169Z" style="fill:rgb(233,140,18);"/>
                </g>
                <g transform="matrix(0.513506,0.0472695,-0.0472695,0.513506,492.152,302.003)">
                    <path d="M402.738,533.533C398.667,525.914 395.808,515.838 394.249,506.857C381.91,518.855 361.351,532.534 344.117,537.033L402.738,533.533Z" style="fill:rgb(233,140,18);"/>
                </g>
                <g transform="matrix(0.513506,0.0472695,-0.0472695,0.513506,492.05,301.675)">
                    <path d="M517.38,225.804C519.066,223.136 524.315,220.567 526.479,218.854C527.827,217.853 529.601,216.99 532.315,216.433C534.967,215.321 540.779,215.219 545.952,215.568L640.957,231.929L539.323,221.803L538.764,226.236L517.38,225.804Z" style="fill:rgb(233,140,18);"/>
                </g>
            </g>
        </g>
    </g>
</svg>
